<svg width="264.69500732421875px" height="158.24000549316406px" xmlns="http://www.w3.org/2000/svg" viewBox="117.65249633789062 -4.120002746582031 264.69500732421875 158.24000549316406" style="background: rgba(0, 0, 0, 0);" preserveAspectRatio="xMidYMid"><defs><linearGradient id="editing-outline-gradient" x1="-0.41354545764260087" x2="1.4135454576426008" y1="0.09326335692419985" y2="0.9067366430758002"><stop offset="0" stop-color="#ee4208"></stop><stop offset="1" stop-color="#4139ff"></stop></linearGradient><filter id="editing-outline" x="-100%" y="-100%" width="300%" height="300%"><feMorphology in="SourceGraphic" operator="dilate" radius="3" result="outline"></feMorphology><feComposite operator="out" in="outline" in2="SourceAlpha"></feComposite></filter></defs><g filter="url(#editing-outline)"><g transform="translate(159.92002534866333, 105.04000473022461)"><path d="M51.56-23.44L51.56 0L41.41 0L41.41-23.44L41.41-23.44Q41.41-25.43 40.72-27.01L40.72-27.01L40.72-27.01Q40.04-28.59 38.87-29.73L38.87-29.73L38.87-29.73Q37.70-30.86 36.11-31.46L36.11-31.46L36.11-31.46Q34.53-32.07 32.70-32.07L32.70-32.07L14.92-32.07L14.92 0L4.77 0L4.77-37.19L4.77-37.19Q4.77-38.24 5.16-39.16L5.16-39.16L5.16-39.16Q5.55-40.08 6.25-40.76L6.25-40.76L6.25-40.76Q6.95-41.45 7.89-41.84L7.89-41.84L7.89-41.84Q8.83-42.23 9.88-42.23L9.88-42.23L32.77-42.23L32.77-42.23Q34.69-42.23 36.82-41.80L36.82-41.80L36.82-41.80Q38.95-41.37 41.04-40.41L41.04-40.41L41.04-40.41Q43.13-39.45 45.02-37.99L45.02-37.99L45.02-37.99Q46.91-36.52 48.38-34.43L48.38-34.43L48.38-34.43Q49.84-32.34 50.70-29.61L50.70-29.61L50.70-29.61Q51.56-26.88 51.56-23.44L51.56-23.44ZM70.78-60.08L70.78-50.90L60.63-50.90L60.63-60.08L70.78-60.08ZM70.78-42.23L70.78 0L60.63 0L60.63-42.23L70.78-42.23ZM121.33-14.26L121.33-14.26L121.33-14.26Q121.33-11.64 120.66-9.55L120.66-9.55L120.66-9.55Q120-7.46 118.91-5.88L118.91-5.88L118.91-5.88Q117.81-4.30 116.37-3.18L116.37-3.18L116.37-3.18Q114.92-2.07 113.34-1.37L113.34-1.37L113.34-1.37Q111.76-0.66 110.14-0.33L110.14-0.33L110.14-0.33Q108.52 0 107.07 0L107.07 0L79.57 0L79.57-10.16L106.99-10.16L106.99-10.16Q109.06-10.16 110.12-11.21L110.12-11.21L110.12-11.21Q111.17-12.27 111.17-14.26L111.17-14.26L111.17-14.26Q110.98-18.32 107.07-18.32L107.07-18.32L91.33-18.32L91.33-18.32Q87.97-18.32 85.63-19.49L85.63-19.49L85.63-19.49Q83.28-20.66 81.82-22.42L81.82-22.42L81.82-22.42Q80.35-24.18 79.71-26.21L79.71-26.21L79.71-26.21Q79.06-28.24 79.06-30L79.06-30L79.06-30Q79.06-33.40 80.27-35.72L80.27-35.72L80.27-35.72Q81.48-38.05 83.32-39.49L83.32-39.49L83.32-39.49Q85.16-40.94 87.30-41.58L87.30-41.58L87.30-41.58Q89.45-42.23 91.33-42.23L91.33-42.23L116.29-42.23L116.29-32.07L91.41-32.07L91.41-32.07Q90.63-32.07 90.18-31.89L90.18-31.89L90.18-31.89Q89.73-31.72 89.51-31.43L89.51-31.43L89.51-31.43Q89.30-31.13 89.26-30.80L89.26-30.80L89.26-30.80Q89.22-30.47 89.22-30.16L89.22-30.16L89.22-30.16Q89.26-29.53 89.45-29.18L89.45-29.18L89.45-29.18Q89.65-28.83 89.94-28.67L89.94-28.67L89.94-28.67Q90.23-28.52 90.61-28.50L90.61-28.50L90.61-28.50Q90.98-28.48 91.33-28.48L91.33-28.48L107.07-28.48L107.07-28.48Q110.98-28.48 113.71-27.07L113.71-27.07L113.71-27.07Q116.45-25.66 118.13-23.54L118.13-23.54L118.13-23.54Q119.80-21.41 120.57-18.91L120.57-18.91L120.57-18.91Q121.33-16.41 121.33-14.26ZM175.39-28.01L175.39 0L165.23 0L165.23-28.01L165.23-28.01Q165.23-30 164.22-31.04L164.22-31.04L164.22-31.04Q163.20-32.07 161.17-32.07L161.17-32.07L142.85-32.07L142.85-42.23L161.17-42.23L161.17-42.23Q162.62-42.23 164.22-41.89L164.22-41.89L164.22-41.89Q165.82-41.56 167.40-40.86L167.40-40.86L167.40-40.86Q168.98-40.16 170.43-39.04L170.43-39.04L170.43-39.04Q171.88-37.93 172.97-36.35L172.97-36.35L172.97-36.35Q174.06-34.77 174.73-32.70L174.73-32.70L174.73-32.70Q175.39-30.63 175.39-28.01L175.39-28.01ZM138.75-60.08L138.75 0L128.59 0L128.59-60.08L138.75-60.08Z" fill="url(#editing-outline-gradient)"></path></g></g><style>text {
  font-size: 64px;
  font-family: Arial Black;
  dominant-baseline: central;
  text-anchor: middle;
}</style></svg>